<svg xmlns="http://www.w3.org/2000/svg" id="logo" class="transition" width="150" height="40" viewBox="0 0 150 40" aria-labelledby="logoTitle logoDesc" role="img">
                                            <title id="logoTitle">Logo GBS Group</title>
                                            <desc id="logoDesc">Logo con annesso pittogramma sferico del gruppo GBS alias
                                                Global Business Solution,</desc>
                                            <g transform="translate(0)">
                                                <path d="M-76.942-310.9c0-11.244,8.058-19.469,19.692-19.469,6.3,0,10.839,1.679,14.018,5.26l-5.391,5.26c-1.93-1.958-4.143-3.469-8.626-3.469-6.98,0-11.52,5.316-11.52,12.422S-64.116-298.361-56-298.361a19.251,19.251,0,0,0,7.547-1.4v-5.592h-9.3v-6.886H-41.19v16.452C-43.4-294-48.962-291.368-56-291.368c-12.6,0-20.941-8.277-20.941-19.531" transform="translate(124.226 330.874)"></path>
                                                <path d="M76.837-297.3a4.989,4.989,0,0,0,5.278-5.335c0-3.122-2.1-5.278-5.732-5.278H69.517V-297.3Zm-1.19-17.364c2.554,0,4.256-1.418,4.256-3.631s-1.42-3.633-3.859-3.633H69.517v7.264ZM61.574-328.911H76.5c7.207,0,11.236,4.54,11.236,9.989,0,3.576-2.1,6.015-5.447,7.093,5.278,1.249,7.831,4.767,7.831,9.593,0,6.863-4.881,11.913-12.938,11.913H61.572Z" transform="translate(28.954 329.872)"></path>
                                                <path d="M163.543-299.367l6.47-3.694c1.7,2.743,3.916,4.757,7.832,4.757,3.29,0,5.391-1.622,5.391-3.862,0-2.686-2.156-3.637-5.789-5.2l-1.988-.839c-5.731-2.406-9.536-5.427-9.536-11.807,0-5.875,4.54-10.352,11.633-10.352,5.051,0,8.682,1.734,11.294,6.268l-6.186,3.918c-1.362-2.407-2.837-3.358-5.107-3.358-2.326,0-3.8,1.455-3.8,3.358,0,2.347,1.476,3.3,4.88,4.756l1.992.839c6.753,2.854,10.556,5.764,10.556,12.312,0,7.051-5.619,10.909-13.164,10.909-7.382,0-12.149-3.466-14.476-8" transform="translate(-41.183 330.875)"></path>
                                                <path d="M-166.273-285.624c-7.162-2.258-11.876-5.829-12.162-9.76a11.342,11.342,0,0,0-.444,4.962c.957,7.057,8.541,12.4,18.589,14.04q1.246.2,2.539.328c.04-.057.077-.115.111-.175a19.7,19.7,0,0,0,2.792-7.19,55.009,55.009,0,0,1-11.426-2.205" transform="translate(194.846 306.892)"></path>
                                                <path d="M-158.385-327.262c-.07.017-.14.037-.2.058a3.783,3.783,0,0,1,1.6,2.4c.275,1.921-1.64,3.385-4.271,3.276a7.437,7.437,0,0,1-.762-.071,6.1,6.1,0,0,1-3.825-2.079,1.373,1.373,0,0,1-.1-.133,3.1,3.1,0,0,1-.593-1.4c-.006-.037-.011-.074-.015-.116a11.974,11.974,0,0,0,.264,1.761,2.5,2.5,0,0,0,.063.27,11.382,11.382,0,0,0,1.4,3.38c2.84,4.6,8.538,6.687,14.854,6.063a8.484,8.484,0,0,1,1.036-.122h.011c.709-.1,1.417-.238,2.137-.408a19.957,19.957,0,0,0-11.6-12.883" transform="translate(186.302 328.739)"></path>
                                                <path d="M-198.21-296.952a27.074,27.074,0,0,1-3.028-.17c-10.779-1.195-19.083-8.684-19.083-17.748,0-6.769,4.636-12.668,11.474-15.709q1.006-.454,2.073-.819a3.607,3.607,0,0,1,.359-.116,5.575,5.575,0,0,1,1.47-.218c-.166-.027-.337-.055-.5-.071a20.545,20.545,0,0,0-2.76-.186c-.161,0-.321,0-.477.006A20.085,20.085,0,0,0-228.4-311.52a20.107,20.107,0,0,0,20.658,19.525,20.292,20.292,0,0,0,13.1-5.188,27.27,27.27,0,0,1-3.575.235" transform="translate(228.402 331.989)"></path>
                                            </g>
                                        </svg>